<svg width="20" height="16" viewBox="0 0 20 16" fill="none" xmlns="http://www.w3.org/2000/svg">
<path d="M20 1.99997V14C20 14.55 19.8042 15.0208 19.4125 15.4125C19.0208 15.8041 18.55 16 18 16H2C1.45 16 0.979167 15.8041 0.5875 15.4125C0.195833 15.0208 0 14.55 0 14V1.99997C0 1.44997 0.195833 0.979136 0.5875 0.58747C0.979167 0.195803 1.45 -3.05176e-05 2 -3.05176e-05H18C18.55 -3.05176e-05 19.0208 0.195803 19.4125 0.58747C19.8042 0.979136 20 1.44997 20 1.99997ZM2 3.99997H18V1.99997H2V3.99997ZM2 7.99997V14H18V7.99997H2Z" fill="black"/>
</svg>
