<svg width="20" height="19" viewBox="0 0 20 19" fill="none" xmlns="http://www.w3.org/2000/svg">
<path d="M10 18.35L8.55 17.05C6.86667 15.5333 5.475 14.225 4.375 13.125C3.275 12.025 2.4 11.0375 1.75 10.1625C1.1 9.28747 0.645833 8.4833 0.3875 7.74997C0.129167 7.01664 0 6.26664 0 5.49997C0 3.9333 0.525 2.62497 1.575 1.57497C2.625 0.52497 3.93333 -3.05176e-05 5.5 -3.05176e-05C6.36667 -3.05176e-05 7.19167 0.183303 7.975 0.549969C8.75833 0.916636 9.43333 1.4333 10 2.09997C10.5667 1.4333 11.2417 0.916636 12.025 0.549969C12.8083 0.183303 13.6333 -3.05176e-05 14.5 -3.05176e-05C16.0667 -3.05176e-05 17.375 0.52497 18.425 1.57497C19.475 2.62497 20 3.9333 20 5.49997C20 6.26664 19.8708 7.01664 19.6125 7.74997C19.3542 8.4833 18.9 9.28747 18.25 10.1625C17.6 11.0375 16.725 12.025 15.625 13.125C14.525 14.225 13.1333 15.5333 11.45 17.05L10 18.35ZM10 15.65C11.6 14.2166 12.9167 12.9875 13.95 11.9625C14.9833 10.9375 15.8 10.0458 16.4 9.28747C17 8.52914 17.4167 7.85414 17.65 7.26247C17.8833 6.6708 18 6.0833 18 5.49997C18 4.49997 17.6667 3.66664 17 2.99997C16.3333 2.3333 15.5 1.99997 14.5 1.99997C13.7167 1.99997 12.9917 2.2208 12.325 2.66247C11.6583 3.10414 11.2 3.66664 10.95 4.34997H9.05C8.8 3.66664 8.34167 3.10414 7.675 2.66247C7.00833 2.2208 6.28333 1.99997 5.5 1.99997C4.5 1.99997 3.66667 2.3333 3 2.99997C2.33333 3.66664 2 4.49997 2 5.49997C2 6.0833 2.11667 6.6708 2.35 7.26247C2.58333 7.85414 3 8.52914 3.6 9.28747C4.2 10.0458 5.01667 10.9375 6.05 11.9625C7.08333 12.9875 8.4 14.2166 10 15.65Z" fill="black"/>
</svg>
