<svg width="94" height="37" viewBox="0 0 94 37" fill="none" xmlns="http://www.w3.org/2000/svg">
<path d="M20.68 1.98V27H16.576V16.056H4.804V27H0.7V1.98H4.804V12.708H16.576V1.98H20.68ZM43.9388 7.164L31.7708 36.324H27.5228L31.5548 26.676L23.7428 7.164H28.3148L33.8948 22.284L39.6908 7.164H43.9388Z" fill="white"/>
<path d="M51.1399 0.36V27H47.0359V0.36H51.1399ZM74.7081 16.596C74.7081 17.34 74.6601 18.012 74.5641 18.612H59.4081C59.5281 20.196 60.1161 21.468 61.1721 22.428C62.2281 23.388 63.5241 23.868 65.0601 23.868C67.2681 23.868 68.8281 22.944 69.7401 21.096H74.1681C73.5681 22.92 72.4761 24.42 70.8921 25.596C69.3321 26.748 67.3881 27.324 65.0601 27.324C63.1641 27.324 61.4601 26.904 59.9481 26.064C58.4601 25.2 57.2841 24 56.4201 22.464C55.5801 20.904 55.1601 19.104 55.1601 17.064C55.1601 15.024 55.5681 13.236 56.3841 11.7C57.2241 10.14 58.3881 8.94 59.8761 8.1C61.3881 7.26 63.1161 6.84 65.0601 6.84C66.9321 6.84 68.6001 7.248 70.0641 8.064C71.5281 8.88 72.6681 10.032 73.4841 11.52C74.3001 12.984 74.7081 14.676 74.7081 16.596ZM70.4241 15.3C70.4001 13.788 69.8601 12.576 68.8041 11.664C67.7481 10.752 66.4401 10.296 64.8801 10.296C63.4641 10.296 62.2521 10.752 61.2441 11.664C60.2361 12.552 59.6361 13.764 59.4441 15.3H70.4241ZM87.2429 16.956L93.6509 27H89.0069L84.7229 20.268L80.6909 27H76.4069L82.8149 17.244L76.4069 7.164H81.0509L85.3349 13.896L89.3669 7.164H93.6509L87.2429 16.956Z" fill="#2D9B81"/>
</svg>
