<svg width="20" height="20" viewBox="0 0 20 20" fill="none" xmlns="http://www.w3.org/2000/svg">
<path d="M15.5962 15.2993C15.2103 15.3001 14.8281 15.2246 14.4716 15.077C14.115 14.9294 13.7913 14.7126 13.5189 14.4393L10.5187 11.4393C10.4125 11.3384 10.2716 11.2821 10.1251 11.2821C9.97862 11.2821 9.83772 11.3384 9.73152 11.4393L6.71987 14.4507C6.44762 14.7242 6.12387 14.941 5.76731 15.0886C5.41076 15.2362 5.02848 15.3117 4.64258 15.3107H4.05111L7.85138 19.1107C9.03718 20.2964 10.9616 20.2964 12.1474 19.1107L15.9577 15.2993H15.5962ZM4.64258 4.68782C5.42835 4.68782 6.16555 4.99354 6.71987 5.54782L9.73152 8.55926C9.78327 8.61109 9.84473 8.65221 9.91239 8.68027C9.98005 8.70833 10.0526 8.72277 10.1258 8.72277C10.1991 8.72277 10.2716 8.70833 10.3393 8.68027C10.4069 8.65221 10.4684 8.61109 10.5201 8.55926L13.5204 5.55925C13.7924 5.28594 14.116 5.06922 14.4723 4.92161C14.8286 4.774 15.2106 4.69843 15.5962 4.69925H15.9577L12.1474 0.889242C11.5776 0.319849 10.805 0 9.99939 0C9.19382 0 8.4212 0.319849 7.85138 0.889242L4.05111 4.68925L4.64258 4.68782Z" fill="black"/>
<path d="M19.1107 7.85073L16.8076 5.54787C16.7559 5.5691 16.7006 5.58025 16.6448 5.58073H15.5975C15.0561 5.58073 14.526 5.80073 14.1446 6.18359L11.1444 9.18359C11.0109 9.31771 10.8523 9.42414 10.6776 9.49676C10.5029 9.56938 10.3156 9.60677 10.1264 9.60677C9.93725 9.60677 9.74993 9.56938 9.57524 9.49676C9.40055 9.42414 9.24193 9.31771 9.10851 9.18359L6.09686 6.17073C5.71048 5.78596 5.18778 5.5693 4.64247 5.56787H3.35667C3.30336 5.56745 3.25059 5.55728 3.20094 5.53787L0.889349 7.85073C-0.29645 9.03645 -0.29645 10.9607 0.889349 12.1479L3.20094 14.4593C3.25004 14.4396 3.30233 14.4289 3.35524 14.4279H4.64247C5.18537 14.4279 5.71398 14.2093 6.09686 13.8265L9.10708 10.8136C9.38175 10.5521 9.74647 10.4063 10.1257 10.4063C10.505 10.4063 10.8697 10.5521 11.1444 10.8136L14.1446 13.8136C14.526 14.1965 15.0561 14.415 15.5975 14.415H16.6448C16.7019 14.415 16.7576 14.4293 16.8076 14.4493L19.1107 12.1465C20.2964 10.9607 20.2964 9.03645 19.1107 7.85073Z" fill="black"/>
</svg>
