<svg width="18" height="18" viewBox="0 0 18 18" fill="none" xmlns="http://www.w3.org/2000/svg">
<path d="M16.6 18L10.3 11.7C9.8 12.1 9.225 12.4166 8.575 12.65C7.925 12.8833 7.23333 13 6.5 13C4.68333 13 3.14583 12.3708 1.8875 11.1125C0.629167 9.85414 0 8.31664 0 6.49997C0 4.6833 0.629167 3.1458 1.8875 1.88747C3.14583 0.629136 4.68333 -3.05176e-05 6.5 -3.05176e-05C8.31667 -3.05176e-05 9.85417 0.629136 11.1125 1.88747C12.3708 3.1458 13 4.6833 13 6.49997C13 7.2333 12.8833 7.92497 12.65 8.57497C12.4167 9.22497 12.1 9.79997 11.7 10.3L18 16.6L16.6 18ZM6.5 11C7.75 11 8.8125 10.5625 9.6875 9.68747C10.5625 8.81247 11 7.74997 11 6.49997C11 5.24997 10.5625 4.18747 9.6875 3.31247C8.8125 2.43747 7.75 1.99997 6.5 1.99997C5.25 1.99997 4.1875 2.43747 3.3125 3.31247C2.4375 4.18747 2 5.24997 2 6.49997C2 7.74997 2.4375 8.81247 3.3125 9.68747C4.1875 10.5625 5.25 11 6.5 11Z" fill="black"/>
</svg>
